<svg version="1.1" id="Layer_1" xmlns="http://www.w3.org/2000/svg" xmlns:xlink="http://www.w3.org/1999/xlink" x="0px" y="0px"
	 width="100%" viewBox="0 0 2509 2509" enable-background="new 0 0 2509 2509" xml:space="preserve">
<path fill="#211720" opacity="1.000000" stroke="none" 
	d="
M582.000000,2.000000 
	C1036.053711,2.000000 1490.107422,2.000000 1945.281006,2.758243 
	C1947.764771,4.301506 1949.057007,5.572877 1950.505005,5.786362 
	C1956.398193,6.655172 1962.339722,7.194621 1968.262329,7.864732 
	C2002.347778,11.721329 2035.697388,19.237474 2068.417725,29.270927 
	C2128.193848,47.600849 2184.542725,73.336716 2236.640137,108.219727 
	C2269.578125,130.273956 2300.489502,154.745743 2329.126465,182.137131 
	C2352.717041,204.701660 2373.897217,229.418854 2393.834961,255.178925 
	C2401.302246,264.826538 2407.360840,275.564087 2413.497803,286.411285 
	C2408.328613,287.345215 2403.723389,287.959167 2399.118164,287.959442 
	C1636.109009,288.004608 873.099915,288.005768 110.382706,287.404327 
	C126.945908,262.028595 144.803497,238.354919 164.842606,216.623413 
	C189.426636,189.963150 215.030075,164.110947 243.687851,141.734131 
	C278.340668,114.676216 314.968048,90.489319 354.403198,70.859940 
	C386.911163,54.678638 420.417999,40.957626 455.233948,30.387148 
	C494.762878,18.385765 534.908081,9.732489 576.067810,5.968032 
	C578.883362,5.710522 581.451904,5.468517 582.000000,2.000000 
z"/>
<path fill="#07048B" opacity="1.000000" stroke="none" 
	d="
M2512.000000,1932.000000 
	C2512.000000,1960.708496 2512.000000,1989.416870 2511.237793,2019.008057 
	C2509.331787,2022.536621 2507.759033,2025.081543 2507.109863,2027.843628 
	C2498.414551,2064.837402 2486.957031,2100.939941 2471.582275,2135.698730 
	C2465.146484,2150.248291 2457.537354,2164.278809 2449.818359,2177.933594 
	C2444.594482,2176.880859 2440.014160,2176.054932 2435.433838,2176.054443 
	C1653.380859,2175.997803 871.327942,2175.999512 89.274956,2176.008301 
	C84.611359,2176.008301 79.947762,2176.135010 74.796448,2175.755859 
	C73.322998,2173.576416 72.261787,2171.881592 71.362579,2170.105225 
	C47.356834,2122.680420 29.823492,2072.916504 18.385439,2021.059814 
	C14.818148,2004.886963 12.822068,1988.367554 11.037361,1972.004639 
	C372.215057,1972.001587 732.462158,1972.000854 1092.709229,1971.998169 
	C1096.041504,1971.998169 1099.399780,1972.212891 1102.696045,1971.860596 
	C1104.540405,1971.663574 1106.282227,1970.505371 1108.925537,1969.753174 
	C1113.191406,1969.729736 1116.601929,1969.733276 1120.790161,1969.997070 
	C1128.705688,1971.493530 1135.804688,1973.066650 1142.989502,1973.897461 
	C1159.401978,1975.795410 1175.822510,1977.915894 1192.302246,1978.869629 
	C1214.856567,1980.175049 1237.468628,1980.481934 1260.942627,1981.375977 
	C1294.013306,1980.651123 1326.230225,1979.988770 1358.147095,1975.312866 
	C1377.501587,1972.477295 1396.734741,1968.812500 1416.801270,1965.519531 
	C1424.388184,1964.014160 1431.203247,1962.540405 1438.002930,1960.999268 
	C1473.371216,1952.984131 1507.751709,1941.743286 1542.297852,1929.855225 
	C1547.422729,1931.010132 1551.980347,1931.937378 1556.538330,1931.938354 
	C1875.025513,1932.006226 2193.512695,1932.000000 2512.000000,1932.000000 
z"/>
<path fill="#120D5D" opacity="1.000000" stroke="none" 
	d="
M2512.000000,1110.000000 
	C2512.000000,1196.041748 2512.000000,1282.083618 2511.062744,1369.062744 
	C2340.319336,1370.000000 2170.513184,1370.010010 2000.707031,1369.959229 
	C1994.657104,1369.957397 1988.695312,1369.718994 1983.053345,1373.807861 
	C1971.366333,1371.560059 1960.430786,1369.372314 1949.421875,1367.654541 
	C1935.455811,1365.475098 1921.401611,1363.860474 1907.437134,1361.672119 
	C1886.098389,1358.328491 1864.804077,1354.702515 1842.792725,1350.730591 
	C1828.071655,1348.022583 1814.062500,1345.689331 1800.021851,1343.564697 
	C1786.651489,1341.541504 1773.246948,1339.745605 1759.860107,1337.830078 
	C1754.044922,1336.998047 1748.235718,1336.122925 1742.425537,1335.255859 
	C1734.962036,1334.142212 1727.500122,1333.016602 1719.579346,1331.251099 
	C1703.833252,1328.369141 1688.522827,1326.272827 1673.265015,1323.846802 
	C1662.907104,1322.199951 1652.633179,1320.031128 1642.302124,1318.206665 
	C1633.878174,1316.718750 1625.434204,1315.338257 1616.983154,1314.012207 
	C1604.669556,1312.080444 1592.341553,1310.240356 1579.221436,1308.129150 
	C1576.476074,1308.600952 1573.435669,1308.783203 1572.800781,1310.113525 
	C1571.293457,1313.271362 1570.940918,1316.976807 1570.094849,1320.454590 
	C1567.373779,1331.638672 1564.640503,1342.819946 1560.980957,1354.000977 
	C1355.406860,1353.997681 1150.763916,1353.995972 945.743042,1353.332520 
	C941.752930,1337.889282 938.140747,1323.107666 934.258972,1307.222534 
	C927.701172,1308.185425 921.244141,1309.038818 914.820312,1310.094116 
	C893.886658,1313.532837 872.965027,1317.045166 851.233276,1320.488892 
	C834.074646,1323.055664 817.708252,1325.582764 801.371338,1328.287354 
	C773.577942,1332.888550 745.803101,1337.601562 717.189453,1342.192383 
	C705.899109,1343.817627 695.452637,1345.602783 684.977539,1347.200684 
	C664.681213,1350.296875 644.368774,1353.287598 623.533081,1355.750366 
	C616.175720,1354.119141 609.349060,1352.139404 602.520874,1352.133789 
	C402.347351,1351.968628 202.173660,1352.000000 2.000000,1352.000000 
	C2.000000,1282.624878 2.000000,1213.249756 2.937315,1142.937256 
	C208.695892,1142.000000 413.517181,1142.026489 618.338379,1141.913696 
	C627.585938,1141.908569 636.832825,1140.642822 646.826538,1139.979614 
	C649.052734,1140.075562 650.532410,1140.156006 652.500427,1140.672363 
	C654.692261,1141.391113 656.395630,1141.674194 658.844238,1141.976440 
	C661.067505,1142.122314 662.545654,1142.249146 664.529175,1142.783936 
	C666.731934,1143.443726 668.429382,1143.695557 670.996338,1143.970703 
	C679.635986,1144.939087 687.443970,1145.647095 695.167847,1146.881226 
	C708.968445,1149.086304 722.691406,1151.780518 736.496948,1153.951538 
	C751.003601,1156.233032 765.589966,1158.004883 780.102966,1160.249023 
	C795.517029,1162.632446 810.879944,1165.344727 826.276306,1167.844727 
	C835.596375,1169.358032 844.949646,1170.667603 854.266602,1172.198975 
	C869.310059,1174.671265 884.339050,1177.232544 899.368042,1179.791992 
	C909.607483,1181.535767 919.864441,1183.196289 930.059021,1185.175049 
	C935.645996,1186.259644 936.430603,1185.861938 937.990479,1180.010010 
	C942.081970,1164.660400 946.298401,1149.344238 951.372681,1134.009644 
	C958.939148,1134.003052 965.598022,1134.000244 972.256897,1134.000244 
	C1161.035889,1134.000000 1349.814819,1134.016602 1538.593750,1133.912842 
	C1543.803833,1133.910034 1549.013184,1132.613037 1554.876465,1132.247925 
	C1561.152832,1150.291260 1566.775513,1168.006104 1572.416138,1185.778076 
	C1583.187134,1183.880005 1594.053955,1181.783569 1604.982544,1180.083984 
	C1619.542236,1177.819702 1634.184570,1176.079224 1648.728149,1173.722534 
	C1667.421631,1170.693359 1686.023071,1167.095215 1704.719238,1164.083984 
	C1719.270264,1161.740601 1733.936646,1160.116821 1748.494385,1157.811890 
	C1763.639648,1155.413818 1778.711670,1152.554932 1793.824463,1149.949219 
	C1804.120728,1148.174072 1814.427856,1146.460083 1824.738159,1144.767822 
	C1838.633423,1142.487427 1852.536743,1140.256226 1866.435913,1138.000122 
	C1881.259644,1135.593994 1896.060669,1133.035522 1910.912964,1130.820923 
	C1923.200439,1128.988892 1935.547974,1127.560181 1948.588135,1125.966431 
	C1951.533936,1125.419678 1953.760620,1124.859497 1956.630615,1124.165771 
	C1958.149780,1124.009399 1959.025513,1123.986572 1960.617065,1123.973877 
	C1963.550537,1123.427856 1965.768188,1122.871582 1968.632324,1122.178711 
	C1970.159424,1122.017700 1971.039917,1121.993408 1972.640381,1121.977295 
	C1975.574707,1121.394897 1977.789062,1120.804321 1980.573608,1119.790283 
	C1980.873779,1116.243408 1980.603760,1113.119873 1981.250244,1109.997803 
	C2158.777832,1109.999512 2335.388916,1109.999756 2512.000000,1110.000000 
z"/>
<path fill="#1D152E" opacity="1.000000" stroke="none" 
	d="
M110.090744,288.008636 
	C873.099915,288.005768 1636.109009,288.004608 2399.118164,287.959442 
	C2403.723389,287.959167 2408.328613,287.345215 2414.068359,286.786621 
	C2416.064209,287.559540 2417.039795,288.487061 2417.770020,289.578857 
	C2447.141113,333.491455 2470.546387,380.431946 2487.665283,430.364929 
	C2494.984863,451.714203 2500.378906,473.719513 2506.916016,495.345642 
	C2507.855225,498.452606 2506.741699,503.252228 2512.000000,504.000000 
	C2512.000000,504.888885 2512.000000,505.777802 2511.149902,507.338989 
	C2504.051025,507.340851 2497.802490,506.083801 2491.553711,506.083130 
	C1667.050049,505.997253 842.546448,506.003387 18.051559,505.207520 
	C25.442287,470.894257 35.327026,438.148132 48.173840,406.308716 
	C64.909515,364.831207 85.165154,325.198425 110.090744,288.008636 
z"/>
<path fill="#1B1338" opacity="1.000000" stroke="none" 
	d="
M18.042847,506.005096 
	C842.546448,506.003387 1667.050049,505.997253 2491.553711,506.083130 
	C2497.802490,506.083801 2504.051025,507.340851 2511.149902,508.005615 
	C2512.000000,558.045288 2512.000000,608.090576 2511.062744,659.067932 
	C2246.211426,660.000000 1982.297119,659.984985 1718.382935,660.091797 
	C1712.146118,660.094299 1705.909790,661.463379 1698.971680,662.167419 
	C1695.647949,660.199707 1693.073608,658.190857 1690.396484,656.329651 
	C1636.491699,618.852966 1578.256348,589.957520 1516.466431,567.928284 
	C1484.369995,556.485352 1451.496704,547.899353 1418.354614,540.384216 
	C1401.569214,536.578186 1384.346558,534.686035 1367.307617,532.018005 
	C1357.659302,530.507324 1347.982544,529.177795 1337.598633,527.363403 
	C1331.200928,526.633423 1325.523438,526.306641 1319.429443,525.961182 
	C1319.013062,525.942566 1318.199097,525.762390 1317.530029,525.342163 
	C1313.157471,524.714661 1309.453857,524.507324 1304.840088,524.247742 
	C1295.937500,524.127869 1287.944824,524.060242 1279.949463,523.882263 
	C1279.946533,523.771851 1280.140503,523.665894 1279.448853,523.202026 
	C1262.307251,522.584839 1245.857544,522.401123 1229.407227,522.341125 
	C1228.204834,522.336731 1226.999268,523.228027 1225.097534,523.814697 
	C1222.987061,523.943359 1221.574097,523.960205 1219.231445,523.781738 
	C1208.776367,524.341614 1199.251099,525.096741 1188.850952,525.901123 
	C1182.820923,526.633667 1177.669434,527.345581 1172.510010,527.994934 
	C1156.570190,530.000977 1140.587891,531.714355 1124.696655,534.048706 
	C1108.152222,536.479004 1091.405640,538.373169 1075.263794,542.514893 
	C1048.007202,549.508423 1020.915894,557.361877 994.215454,566.238281 
	C973.908325,572.989319 954.169922,581.545593 934.441895,589.919250 
	C910.578613,600.048157 887.549561,611.962830 865.477661,625.554321 
	C846.913452,636.985840 828.535156,648.769104 810.602173,661.160217 
	C795.978088,671.264954 782.072571,682.418701 767.968384,693.263367 
	C759.990906,699.397339 752.255371,705.846130 743.560486,712.000610 
	C737.125366,711.232117 731.540771,710.079285 725.955872,710.077209 
	C484.637238,709.987610 243.318619,710.000000 2.000000,710.000000 
	C2.000000,671.288025 2.000000,632.576111 2.769957,592.737732 
	C4.312655,590.242371 5.605707,588.933228 5.771055,587.494446 
	C6.640313,579.930420 6.794308,572.264954 7.991370,564.761597 
	C11.121575,545.140930 14.664476,525.586121 18.042847,506.005096 
z"/>
<path fill="#0201A0" opacity="1.000000" stroke="none" 
	d="
M2016.000000,2512.000000 
	C1515.277222,2512.000000 1014.554504,2512.000000 513.047119,2511.227539 
	C506.690857,2508.652832 501.212616,2506.458496 495.533783,2505.107178 
	C408.006287,2484.282227 328.423492,2446.583496 256.678772,2392.409424 
	C244.277908,2383.045654 232.821167,2372.431152 221.959564,2362.287354 
	C226.988922,2362.120117 230.987030,2362.007324 234.985123,2362.007324 
	C920.200439,2361.999512 1605.415771,2361.998535 2290.631104,2362.026123 
	C2295.618408,2362.026367 2300.605957,2362.425293 2305.200195,2363.223633 
	C2287.178711,2377.881104 2270.183594,2392.847656 2251.805664,2405.861328 
	C2190.793457,2449.065186 2123.991455,2480.296387 2051.805664,2499.884521 
	C2041.239502,2502.751465 2030.578735,2505.269775 2019.959839,2507.941650 
	C2017.798340,2508.485352 2014.952881,2508.336426 2016.000000,2512.000000 
z"/>
<path fill="#0B077B" opacity="1.000000" stroke="none" 
	d="
M2512.000000,1931.062744 
	C2193.512695,1932.000000 1875.025513,1932.006226 1556.538330,1931.938354 
	C1551.980347,1931.937378 1547.422729,1931.010132 1542.833252,1929.401978 
	C1556.531738,1922.180298 1570.261719,1916.071899 1584.716553,1909.893066 
	C1605.166504,1899.484375 1625.208862,1889.702271 1644.540527,1878.674194 
	C1671.954712,1863.035522 1698.203003,1845.544189 1723.137817,1824.970825 
	C1735.041138,1815.078369 1746.321289,1805.513184 1757.575195,1795.917236 
	C1782.599976,1774.579468 1805.120239,1750.776978 1826.276489,1725.666748 
	C1832.663452,1718.085938 1838.503418,1710.044189 1845.145874,1701.864502 
	C1849.463501,1696.521118 1853.510620,1691.711914 1856.941772,1686.497192 
	C1866.730957,1671.619629 1876.254517,1656.567383 1885.949951,1641.627686 
	C1886.423218,1640.898193 1887.536865,1640.584351 1889.017090,1640.419922 
	C1894.968140,1644.499634 1901.025269,1644.013672 1907.028198,1644.013184 
	C2108.685547,1643.997314 2310.342773,1644.000000 2512.000000,1644.000000 
	C2512.000000,1739.375122 2512.000000,1834.750244 2512.000000,1931.062744 
z"/>
<path fill="#0A0680" opacity="1.000000" stroke="none" 
	d="
M1108.070312,1969.780396 
	C1106.282227,1970.505371 1104.540405,1971.663574 1102.696045,1971.860596 
	C1099.399780,1972.212891 1096.041504,1971.998169 1092.709229,1971.998169 
	C732.462158,1972.000854 372.215057,1972.001587 10.713408,1971.259033 
	C8.231453,1959.867798 6.998708,1949.220459 5.780360,1938.571655 
	C5.466334,1935.826660 6.523188,1932.314819 2.000000,1932.000000 
	C2.000000,1879.291504 2.000000,1826.583130 2.937315,1772.937256 
	C239.791077,1771.787354 475.707520,1771.574951 711.624023,1771.340820 
	C711.909424,1771.340454 712.232483,1771.057617 712.469238,1770.833984 
	C712.700989,1770.614746 712.844727,1770.302246 713.372131,1769.516846 
	C712.938354,1766.753418 712.433533,1763.537598 712.497925,1760.573975 
	C715.280518,1762.785889 717.493958,1764.745728 720.041077,1767.261230 
	C737.992004,1783.894775 755.101685,1800.577026 773.350769,1815.902344 
	C797.974731,1836.581055 824.099976,1855.326172 852.609375,1871.806152 
	C872.223389,1883.201416 891.062012,1894.578857 910.429810,1904.969971 
	C921.966858,1911.159790 934.253357,1915.994995 946.352173,1921.084106 
	C959.318848,1926.538452 972.094666,1932.604492 986.670654,1935.723633 
	C989.897827,1937.424438 992.416260,1939.011963 995.162354,1939.874023 
	C1002.584900,1942.204102 1010.212585,1943.909546 1017.565002,1946.428589 
	C1040.129150,1954.159546 1063.246582,1959.648560 1086.597412,1964.330566 
	C1093.828613,1965.780273 1100.916748,1967.943726 1108.070312,1969.780396 
z"/>
<path fill="#0F0A6B" opacity="1.000000" stroke="none" 
	d="
M2512.000000,1643.062744 
	C2310.342773,1644.000000 2108.685547,1643.997314 1907.028198,1644.013184 
	C1901.025269,1644.013672 1894.968140,1644.499634 1889.175537,1639.732178 
	C1891.312134,1633.779297 1893.955322,1628.857178 1896.870605,1623.770630 
	C1897.484253,1623.340698 1897.745239,1623.011108 1898.452393,1622.133789 
	C1938.128906,1553.443237 1964.844482,1480.604858 1979.934448,1403.487549 
	C1981.829224,1393.804199 1982.522339,1383.885986 1983.772217,1374.076538 
	C1988.695312,1369.718994 1994.657104,1369.957397 2000.707031,1369.959229 
	C2170.513184,1370.010010 2340.319336,1370.000000 2511.062744,1370.000000 
	C2512.000000,1460.708496 2512.000000,1551.416870 2512.000000,1643.062744 
z"/>
<path fill="#181145" opacity="1.000000" stroke="none" 
	d="
M2.000000,710.937317 
	C243.318619,710.000000 484.637238,709.987610 725.955872,710.077209 
	C731.540771,710.079285 737.125366,711.232117 743.308472,712.635498 
	C736.336121,721.324646 728.875732,729.335815 721.172058,737.105774 
	C704.591003,753.829834 688.715393,771.175842 673.958984,789.540161 
	C649.330811,820.189819 626.815552,852.302368 607.970642,886.836426 
	C597.355042,906.289795 587.658630,926.244873 576.639160,945.979126 
	C384.486816,945.989563 193.243408,945.994751 2.000000,946.000000 
	C2.000000,867.958191 2.000000,789.916443 2.000000,710.937317 
z"/>
<path fill="#160F4D" opacity="1.000000" stroke="none" 
	d="
M2512.000000,1109.062744 
	C2335.388916,1109.999756 2158.777832,1109.999512 1981.100098,1109.171387 
	C1978.676758,1101.326660 1977.625488,1094.233765 1975.905518,1087.306885 
	C1970.936035,1067.294556 1966.428833,1047.123413 1960.355713,1027.442017 
	C1954.486694,1008.422424 1946.873169,989.942444 1940.064941,971.211304 
	C1929.432983,941.960144 1915.428711,914.298645 1900.149780,887.274475 
	C1891.883057,872.652771 1882.978882,858.391541 1875.276855,843.973694 
	C2088.127686,843.986450 2300.063965,843.993225 2512.000000,844.000000 
	C2512.000000,932.041809 2512.000000,1020.083557 2512.000000,1109.062744 
z"/>
<path fill="#0C0874" opacity="1.000000" stroke="none" 
	d="
M711.928772,1760.321777 
	C712.433533,1763.537598 712.938354,1766.753418 713.372131,1769.516846 
	C712.844727,1770.302246 712.700989,1770.614746 712.469238,1770.833984 
	C712.232483,1771.057617 711.909424,1771.340454 711.624023,1771.340820 
	C475.707520,1771.574951 239.791077,1771.787354 2.937315,1772.000000 
	C2.000000,1701.958252 2.000000,1631.916382 2.937315,1560.937256 
	C189.861710,1560.000000 375.848785,1560.001221 561.835876,1559.992798 
	C566.834595,1559.992554 571.833374,1559.885864 577.251099,1560.331055 
	C580.411133,1566.525513 582.960327,1572.319824 585.929199,1577.890503 
	C594.506653,1593.985474 603.253174,1609.990479 612.073914,1626.716797 
	C628.005798,1655.220703 645.806702,1681.723999 665.899536,1706.576172 
	C680.723206,1724.911255 696.549316,1742.435913 711.928772,1760.321777 
z"/>
<path fill="#19123F" opacity="1.000000" stroke="none" 
	d="
M2512.000000,843.062683 
	C2300.063965,843.993225 2088.127686,843.986450 1874.753540,843.525146 
	C1854.411255,816.059998 1834.526855,789.901611 1812.608154,765.147766 
	C1786.972290,736.195862 1758.984497,709.940857 1729.167358,685.500122 
	C1719.478271,677.558105 1709.512451,669.953857 1699.673218,662.195068 
	C1705.909790,661.463379 1712.146118,660.094299 1718.382935,660.091797 
	C1982.297119,659.984985 2246.211426,660.000000 2511.062744,660.000000 
	C2512.000000,720.708435 2512.000000,781.416931 2512.000000,843.062683 
z"/>
<path fill="#0F0A69" opacity="1.000000" stroke="none" 
	d="
M576.832092,1559.828857 
	C571.833374,1559.885864 566.834595,1559.992554 561.835876,1559.992798 
	C375.848785,1560.001221 189.861710,1560.000000 2.937315,1560.000000 
	C2.000000,1491.291504 2.000000,1422.583130 2.000000,1352.937256 
	C202.173660,1352.000000 402.347351,1351.968628 602.520874,1352.133789 
	C609.349060,1352.139404 616.175720,1354.119141 622.963989,1356.158569 
	C619.276855,1358.027222 615.628845,1358.916016 611.104736,1359.729492 
	C581.405884,1363.359375 552.846191,1368.586792 523.807251,1373.296021 
	C524.085510,1377.455078 523.991882,1380.444824 524.522278,1383.319702 
	C531.656372,1421.986206 539.478394,1460.535156 552.393616,1497.742432 
	C559.680786,1518.736084 568.630981,1539.152466 576.832092,1559.828857 
z"/>
<path fill="#150F51" opacity="1.000000" stroke="none" 
	d="
M2.000000,946.937317 
	C193.243408,945.994751 384.486816,945.989563 576.586975,946.688110 
	C557.748962,986.776672 526.607178,1089.876831 525.740051,1118.959717 
	C529.325500,1119.929688 532.986755,1121.303955 536.769287,1121.875244 
	C551.568359,1124.110962 566.428406,1125.945190 581.222778,1128.209839 
	C596.972229,1130.620483 612.689819,1133.253052 628.386292,1135.989258 
	C634.334412,1137.026123 640.184998,1138.622681 646.080017,1139.964233 
	C636.832825,1140.642822 627.585938,1141.908569 618.338379,1141.913696 
	C413.517181,1142.026489 208.695892,1142.000000 2.937315,1142.000000 
	C2.000000,1077.291504 2.000000,1012.583069 2.000000,946.937317 
z"/>
<path fill="#000000" opacity="1.000000" stroke="none" 
	d="
M18.051559,505.207520 
	C14.664476,525.586121 11.121575,545.140930 7.991370,564.761597 
	C6.794308,572.264954 6.640313,579.930420 5.771055,587.494446 
	C5.605707,588.933228 4.312655,590.242371 2.769957,591.805664 
	C2.000000,395.480469 2.000000,198.960922 2.000000,2.000000 
	C194.708237,2.000000 387.416809,2.000000 581.062683,2.000000 
	C581.451904,5.468517 578.883362,5.710522 576.067810,5.968032 
	C534.908081,9.732489 494.762878,18.385765 455.233948,30.387148 
	C420.417999,40.957626 386.911163,54.678638 354.403198,70.859940 
	C314.968048,90.489319 278.340668,114.676216 243.687851,141.734131 
	C215.030075,164.110947 189.426636,189.963150 164.842606,216.623413 
	C144.803497,238.354919 126.945908,262.028595 110.382706,287.404327 
	C85.165154,325.198425 64.909515,364.831207 48.173840,406.308716 
	C35.327026,438.148132 25.442287,470.894257 18.051559,505.207520 
z"/>
<path fill="#000000" opacity="1.000000" stroke="none" 
	d="
M2.000000,1932.937256 
	C6.523188,1932.314819 5.466334,1935.826660 5.780360,1938.571655 
	C6.998708,1949.220459 8.231453,1959.867798 9.782784,1971.261230 
	C12.822068,1988.367554 14.818148,2004.886963 18.385439,2021.059814 
	C29.823492,2072.916504 47.356834,2122.680420 71.362579,2170.105225 
	C72.261787,2171.881592 73.322998,2173.576416 74.997032,2176.471191 
	C84.536613,2193.522461 92.864441,2209.731934 102.343872,2225.237061 
	C124.924713,2262.171387 152.470154,2295.321533 182.395248,2326.446533 
	C194.551865,2339.090332 208.043915,2350.450439 220.928314,2362.394531 
	C232.821167,2372.431152 244.277908,2383.045654 256.678772,2392.409424 
	C328.423492,2446.583496 408.006287,2484.282227 495.533783,2505.107178 
	C501.212616,2506.458496 506.690857,2508.652832 512.131226,2511.227539 
	C342.136536,2512.000000 172.273071,2512.000000 2.000000,2512.000000 
	C2.000000,2319.291748 2.000000,2126.583252 2.000000,1932.937256 
z"/>
<path fill="#000000" opacity="1.000000" stroke="none" 
	d="
M2512.000000,503.062683 
	C2506.741699,503.252228 2507.855225,498.452606 2506.916016,495.345642 
	C2500.378906,473.719513 2494.984863,451.714203 2487.665283,430.364929 
	C2470.546387,380.431946 2447.141113,333.491455 2417.770020,289.578857 
	C2417.039795,288.487061 2416.064209,287.559540 2414.632324,286.180054 
	C2407.360840,275.564087 2401.302246,264.826538 2393.834961,255.178925 
	C2373.897217,229.418854 2352.717041,204.701660 2329.126465,182.137131 
	C2300.489502,154.745743 2269.578125,130.273956 2236.640137,108.219727 
	C2184.542725,73.336716 2128.193848,47.600849 2068.417725,29.270927 
	C2035.697388,19.237474 2002.347778,11.721329 1968.262329,7.864732 
	C1962.339722,7.194621 1956.398193,6.655172 1950.505005,5.786362 
	C1949.057007,5.572877 1947.764771,4.301506 1946.200439,2.758243 
	C2134.511963,2.000000 2323.023926,2.000000 2512.000000,2.000000 
	C2512.000000,168.708176 2512.000000,335.416779 2512.000000,503.062683 
z"/>
<path fill="#000000" opacity="1.000000" stroke="none" 
	d="
M2016.937256,2512.000000 
	C2014.952881,2508.336426 2017.798340,2508.485352 2019.959839,2507.941650 
	C2030.578735,2505.269775 2041.239502,2502.751465 2051.805664,2499.884521 
	C2123.991455,2480.296387 2190.793457,2449.065186 2251.805664,2405.861328 
	C2270.183594,2392.847656 2287.178711,2377.881104 2305.776367,2363.099121 
	C2330.530273,2342.430176 2351.947021,2320.062744 2371.798096,2296.304932 
	C2393.040039,2270.882812 2412.012451,2243.715576 2429.308838,2215.442871 
	C2436.704346,2203.354492 2443.431152,2190.857178 2450.461914,2178.545654 
	C2457.537354,2164.278809 2465.146484,2150.248291 2471.582275,2135.698730 
	C2486.957031,2100.939941 2498.414551,2064.837402 2507.109863,2027.843628 
	C2507.759033,2025.081543 2509.331787,2022.536621 2511.237793,2019.945312 
	C2512.000000,2183.854736 2512.000000,2347.709229 2512.000000,2512.000000 
	C2347.291748,2512.000000 2182.583252,2512.000000 2016.937256,2512.000000 
z"/>
<path fill="#040297" opacity="1.000000" stroke="none" 
	d="
M2449.818359,2177.933594 
	C2443.431152,2190.857178 2436.704346,2203.354492 2429.308838,2215.442871 
	C2412.012451,2243.715576 2393.040039,2270.882812 2371.798096,2296.304932 
	C2351.947021,2320.062744 2330.530273,2342.430176 2306.169189,2362.513672 
	C2300.605957,2362.425293 2295.618408,2362.026367 2290.631104,2362.026123 
	C1605.415771,2361.998535 920.200439,2361.999512 234.985123,2362.007324 
	C230.987030,2362.007324 226.988922,2362.120117 221.959595,2362.287354 
	C208.043915,2350.450439 194.551865,2339.090332 182.395248,2326.446533 
	C152.470154,2295.321533 124.924713,2262.171387 102.343872,2225.237061 
	C92.864441,2209.731934 84.536613,2193.522461 75.484749,2176.917969 
	C79.947762,2176.135010 84.611359,2176.008301 89.274956,2176.008301 
	C871.327942,2175.999512 1653.380859,2175.997803 2435.433838,2176.054443 
	C2440.014160,2176.054932 2444.594482,2176.880859 2449.818359,2177.933594 
z"/>
<path fill="#0DCCF0" opacity="1.000000" stroke="none" 
	d="
M1583.991699,1909.963379 
	C1570.261719,1916.071899 1556.531738,1922.180298 1542.266357,1928.741943 
	C1507.751709,1941.743286 1473.371216,1952.984131 1438.002930,1960.999268 
	C1431.203247,1962.540405 1424.388184,1964.014160 1416.638916,1964.730713 
	C1415.131592,1959.028687 1414.075684,1954.115601 1414.071289,1949.201294 
	C1413.952759,1814.038818 1413.941284,1678.876343 1414.325317,1543.188721 
	C1474.490845,1507.981201 1518.510376,1459.014160 1546.762207,1396.076050 
	C1552.848755,1382.516846 1556.915161,1368.050781 1561.912109,1354.002441 
	C1564.640503,1342.819946 1567.373779,1331.638672 1570.094849,1320.454590 
	C1570.940918,1316.976807 1571.293457,1313.271362 1572.800781,1310.113525 
	C1573.435669,1308.783203 1576.476074,1308.600952 1579.217041,1309.042480 
	C1580.007324,1408.824951 1580.002197,1507.462036 1580.000366,1606.098999 
	C1579.998535,1702.070190 1580.008789,1798.041260 1579.978516,1894.012451 
	C1579.976685,1899.704590 1579.634155,1905.403931 1583.991699,1909.963379 
z"/>
<path fill="#0BBCF2" opacity="1.000000" stroke="none" 
	d="
M1413.911987,1543.713745 
	C1413.941284,1678.876343 1413.952759,1814.038818 1414.071289,1949.201294 
	C1414.075684,1954.115601 1415.131592,1959.028687 1415.859863,1964.731323 
	C1396.734741,1968.812500 1377.501587,1972.477295 1358.147095,1975.312866 
	C1326.230225,1979.988770 1294.013306,1980.651123 1260.931519,1980.493408 
	C1260.033203,1847.886841 1260.032471,1716.322266 1260.946899,1584.584106 
	C1272.712524,1583.620483 1283.602173,1583.181641 1294.405518,1581.971436 
	C1321.219238,1578.967773 1347.308838,1572.691406 1372.311279,1562.532715 
	C1386.401001,1556.807861 1400.059326,1550.021729 1413.911987,1543.713745 
z"/>
<path fill="#089EF5" opacity="1.000000" stroke="none" 
	d="
M1108.925537,1969.753296 
	C1100.916748,1967.943726 1093.828613,1965.780273 1086.597412,1964.330566 
	C1063.246582,1959.648560 1040.129150,1954.159546 1017.565002,1946.428589 
	C1010.212585,1943.909546 1002.584900,1942.204102 995.162354,1939.874023 
	C992.416260,1939.011963 989.897827,1937.424438 986.655396,1934.838135 
	C986.023499,1776.776123 986.011780,1620.043823 986.000183,1463.311401 
	C986.000061,1462.313110 986.106995,1461.301514 985.983765,1460.318848 
	C985.442139,1455.998901 986.981018,1452.526489 990.709290,1450.074097 
	C1021.878540,1493.596680 1060.504761,1527.444580 1107.916504,1551.110840 
	C1113.546509,1553.921021 1119.166504,1556.751343 1124.131958,1560.067017 
	C1119.172119,1564.858643 1120.014771,1570.363403 1120.014160,1575.625977 
	C1120.000366,1706.996338 1120.008301,1838.366577 1120.012573,1969.736816 
	C1116.601929,1969.733276 1113.191406,1969.729736 1108.925537,1969.753296 
z"/>
<path fill="#0AADF4" opacity="1.000000" stroke="none" 
	d="
M1120.790161,1969.997070 
	C1120.008301,1838.366577 1120.000366,1706.996338 1120.014160,1575.625977 
	C1120.014771,1570.363403 1119.172119,1564.858643 1124.825439,1560.155518 
	C1143.692383,1568.130615 1162.218018,1573.047119 1181.196289,1576.952026 
	C1203.318604,1581.503906 1225.498657,1584.514893 1248.099121,1584.288818 
	C1252.074829,1584.249023 1256.054077,1584.591675 1260.031738,1584.757690 
	C1260.032471,1716.322266 1260.033203,1847.886841 1260.044922,1980.334106 
	C1237.468628,1980.481934 1214.856567,1980.175049 1192.302246,1978.869629 
	C1175.822510,1977.915894 1159.401978,1975.795410 1142.989502,1973.897461 
	C1135.804688,1973.066650 1128.705688,1971.493530 1120.790161,1969.997070 
z"/>
<path fill="#FFFFFF" opacity="1.000000" stroke="none" 
	d="
M646.826538,1139.979614 
	C640.184998,1138.622681 634.334412,1137.026123 628.386292,1135.989258 
	C612.689819,1133.253052 596.972229,1130.620483 581.222778,1128.209839 
	C566.428406,1125.945190 551.568359,1124.110962 536.769287,1121.875244 
	C532.986755,1121.303955 529.325500,1119.929688 525.740051,1118.959717 
	C526.607178,1089.876831 557.748962,986.776672 577.495972,946.682922 
	C587.658630,926.244873 597.355042,906.289795 607.970642,886.836426 
	C626.815552,852.302368 649.330811,820.189819 673.958984,789.540161 
	C688.715393,771.175842 704.591003,753.829834 721.172058,737.105774 
	C728.875732,729.335815 736.336121,721.324646 744.158813,712.787964 
	C752.255371,705.846130 759.990906,699.397339 767.968384,693.263367 
	C782.072571,682.418701 795.978088,671.264954 810.602173,661.160217 
	C828.535156,648.769104 846.913452,636.985840 865.477661,625.554321 
	C887.549561,611.962830 910.578613,600.048157 934.441895,589.919250 
	C954.169922,581.545593 973.908325,572.989319 994.215454,566.238281 
	C1020.915894,557.361877 1048.007202,549.508423 1075.263794,542.514893 
	C1091.405640,538.373169 1108.152222,536.479004 1124.696655,534.048706 
	C1140.587891,531.714355 1156.570190,530.000977 1172.510010,527.994934 
	C1177.669434,527.345581 1182.820923,526.633667 1189.786865,526.108765 
	C1201.118896,525.503784 1210.640137,524.740356 1220.161255,523.976929 
	C1221.574097,523.960205 1222.987061,523.943359 1226.037231,524.006409 
	C1245.163208,523.946167 1262.651855,523.806030 1280.140503,523.665894 
	C1280.140503,523.665894 1279.946533,523.771851 1280.673096,524.249512 
	C1289.689819,525.049194 1297.980103,525.371155 1307.118164,525.748596 
	C1311.377075,525.790222 1314.788086,525.776306 1318.199097,525.762390 
	C1318.199097,525.762390 1319.013062,525.942566 1320.195801,526.240112 
	C1327.025146,526.947266 1332.671875,527.356934 1338.318604,527.766602 
	C1347.982544,529.177795 1357.659302,530.507324 1367.307617,532.018005 
	C1384.346558,534.686035 1401.569214,536.578186 1418.354614,540.384216 
	C1451.496704,547.899353 1484.369995,556.485352 1516.466431,567.928284 
	C1578.256348,589.957520 1636.491699,618.852966 1690.396484,656.329651 
	C1693.073608,658.190857 1695.647949,660.199707 1698.971680,662.167419 
	C1709.512451,669.953857 1719.478271,677.558105 1729.167358,685.500122 
	C1758.984497,709.940857 1786.972290,736.195862 1812.608154,765.147766 
	C1834.526855,789.901611 1854.411255,816.059998 1873.838867,843.519104 
	C1882.978882,858.391541 1891.883057,872.652771 1900.149780,887.274475 
	C1915.428711,914.298645 1929.432983,941.960144 1940.064941,971.211304 
	C1946.873169,989.942444 1954.486694,1008.422424 1960.355713,1027.442017 
	C1966.428833,1047.123413 1970.936035,1067.294556 1975.905518,1087.306885 
	C1977.625488,1094.233765 1978.676758,1101.326660 1980.183594,1109.170166 
	C1980.603760,1113.119873 1980.873779,1116.243408 1979.842773,1119.679321 
	C1976.334717,1120.650879 1974.127686,1121.310059 1971.920532,1121.969116 
	C1971.039917,1121.993408 1970.159424,1122.017700 1967.911865,1121.994873 
	C1964.330322,1122.619629 1962.115845,1123.291748 1959.901245,1123.963745 
	C1959.025513,1123.986572 1958.149780,1124.009399 1955.905396,1123.975952 
	C1952.314087,1124.597290 1950.091553,1125.275024 1947.868896,1125.952881 
	C1935.547974,1127.560181 1923.200439,1128.988892 1910.912964,1130.820923 
	C1896.060669,1133.035522 1881.259644,1135.593994 1866.435913,1138.000122 
	C1852.536743,1140.256226 1838.633423,1142.487427 1824.738159,1144.767822 
	C1814.427856,1146.460083 1804.120728,1148.174072 1793.824463,1149.949219 
	C1778.711670,1152.554932 1763.639648,1155.413818 1748.494385,1157.811890 
	C1733.936646,1160.116821 1719.270264,1161.740601 1704.719238,1164.083984 
	C1686.023071,1167.095215 1667.421631,1170.693359 1648.728149,1173.722534 
	C1634.184570,1176.079224 1619.542236,1177.819702 1604.982544,1180.083984 
	C1594.053955,1181.783569 1583.187134,1183.880005 1572.416138,1185.778076 
	C1566.775513,1168.006104 1561.152832,1150.291260 1554.811768,1131.459595 
	C1552.368774,1125.098145 1551.099731,1119.648071 1548.843384,1114.643066 
	C1537.012207,1088.398071 1522.390137,1063.702515 1504.703369,1041.044800 
	C1470.571045,997.319336 1427.686523,964.591125 1376.404907,943.489807 
	C1345.038086,930.583069 1312.173706,922.828735 1277.528809,919.464600 
	C1261.052124,917.532532 1245.342896,916.477844 1228.853271,919.874390 
	C1223.826172,920.623169 1219.657227,921.386047 1215.464233,921.979431 
	C1206.095215,923.305054 1196.665405,924.263245 1187.346802,925.872131 
	C1152.665405,931.860046 1120.464233,945.150757 1090.574097,962.973999 
	C1061.241455,980.464783 1034.447388,1001.672241 1012.493896,1028.435059 
	C997.772766,1046.381226 984.067749,1064.902588 972.806274,1085.273315 
	C964.117310,1100.990967 957.327087,1117.500977 950.465027,1134.014648 
	C946.298401,1149.344238 942.081970,1164.660400 937.990479,1180.010010 
	C936.430603,1185.861938 935.645996,1186.259644 930.059021,1185.175049 
	C919.864441,1183.196289 909.607483,1181.535767 899.368042,1179.791992 
	C884.339050,1177.232544 869.310059,1174.671265 854.266602,1172.198975 
	C844.949646,1170.667603 835.596375,1169.358032 826.276306,1167.844727 
	C810.879944,1165.344727 795.517029,1162.632446 780.102966,1160.249023 
	C765.589966,1158.004883 751.003601,1156.233032 736.496948,1153.951538 
	C722.691406,1151.780518 708.968445,1149.086304 695.167847,1146.881226 
	C687.443970,1145.647095 679.635986,1144.939087 670.664734,1143.355713 
	C667.650330,1142.603516 665.837036,1142.489746 664.023804,1142.375977 
	C662.545654,1142.249146 661.067505,1142.122314 658.503906,1141.370605 
	C655.616333,1140.575806 653.814148,1140.406250 652.012024,1140.236572 
	C650.532410,1140.156006 649.052734,1140.075562 646.826538,1139.979614 
z"/>
<path fill="#0F0B69" opacity="1.000000" stroke="none" 
	d="
M1260.946899,1584.584106 
	C1256.054077,1584.591675 1252.074829,1584.249023 1248.099121,1584.288818 
	C1225.498657,1584.514893 1203.318604,1581.503906 1181.196289,1576.952026 
	C1162.218018,1573.047119 1143.692383,1568.130615 1125.484619,1559.660645 
	C1119.166504,1556.751343 1113.546509,1553.921021 1107.916504,1551.110840 
	C1060.504761,1527.444580 1021.878540,1493.596680 990.546875,1449.413574 
	C983.665344,1438.124390 977.028198,1428.136719 971.428772,1417.597900 
	C960.674316,1397.356934 951.202026,1376.528442 946.120972,1353.994263 
	C1150.763916,1353.995972 1355.406860,1353.997681 1560.980957,1354.000977 
	C1556.915161,1368.050781 1552.848755,1382.516846 1546.762207,1396.076050 
	C1518.510376,1459.014160 1474.490845,1507.981201 1414.325317,1543.188721 
	C1400.059326,1550.021729 1386.401001,1556.807861 1372.311279,1562.532715 
	C1347.308838,1572.691406 1321.219238,1578.967773 1294.405518,1581.971436 
	C1283.602173,1583.181641 1272.712524,1583.620483 1260.946899,1584.584106 
z"/>
<path fill="#160F50" opacity="1.000000" stroke="none" 
	d="
M1278.288452,919.836426 
	C1312.173706,922.828735 1345.038086,930.583069 1376.404907,943.489807 
	C1427.686523,964.591125 1470.571045,997.319336 1504.703369,1041.044800 
	C1522.390137,1063.702515 1537.012207,1088.398071 1548.843384,1114.643066 
	C1551.099731,1119.648071 1552.368774,1125.098145 1554.158081,1131.131226 
	C1549.013184,1132.613037 1543.803833,1133.910034 1538.593750,1133.912842 
	C1349.814819,1134.016602 1161.035889,1134.000000 972.256897,1134.000244 
	C965.598022,1134.000244 958.939148,1134.003052 951.372681,1134.009644 
	C957.327087,1117.500977 964.117310,1100.990967 972.806274,1085.273315 
	C984.067749,1064.902588 997.772766,1046.381226 1012.493896,1028.435059 
	C1034.447388,1001.672241 1061.241455,980.464783 1090.574097,962.973999 
	C1120.464233,945.150757 1152.665405,931.860046 1187.346802,925.872131 
	C1196.665405,924.263245 1206.095215,923.305054 1215.464233,921.979431 
	C1219.657227,921.386047 1223.826172,920.623169 1229.799316,920.085205 
	C1247.157959,920.100891 1262.723145,919.968628 1278.288452,919.836426 
z"/>
<path fill="#0FDAEF" opacity="1.000000" stroke="none" 
	d="
M1584.716553,1909.893066 
	C1579.634155,1905.403931 1579.976685,1899.704590 1579.978516,1894.012451 
	C1580.008789,1798.041260 1579.998535,1702.070190 1580.000366,1606.098999 
	C1580.002197,1507.462036 1580.007324,1408.824951 1580.015381,1309.274658 
	C1592.341553,1310.240356 1604.669556,1312.080444 1616.983154,1314.012207 
	C1625.434204,1315.338257 1633.878174,1316.718750 1642.302124,1318.206665 
	C1652.633179,1320.031128 1662.907104,1322.199951 1673.265015,1323.846802 
	C1688.522827,1326.272827 1703.833252,1328.369141 1719.569092,1332.195068 
	C1720.011230,1358.780151 1720.001099,1383.776123 1720.000732,1408.772095 
	C1719.999146,1542.083984 1719.970093,1675.395996 1720.105957,1808.707764 
	C1720.111694,1814.234009 1721.668579,1819.758667 1722.502686,1825.284058 
	C1698.203003,1845.544189 1671.954712,1863.035522 1644.540527,1878.674194 
	C1625.208862,1889.702271 1605.166504,1899.484375 1584.716553,1909.893066 
z"/>
<path fill="#068EF7" opacity="1.000000" stroke="none" 
	d="
M945.743042,1353.332520 
	C951.202026,1376.528442 960.674316,1397.356934 971.428772,1417.597900 
	C977.028198,1428.136719 983.665344,1438.124390 989.996094,1449.021484 
	C986.981018,1452.526489 985.442139,1455.998901 985.983765,1460.318848 
	C986.106995,1461.301514 986.000061,1462.313110 986.000183,1463.311401 
	C986.011780,1620.043823 986.023499,1776.776123 986.050415,1934.393921 
	C972.094666,1932.604492 959.318848,1926.538452 946.352173,1921.084106 
	C934.253357,1915.994995 921.966858,1911.159790 910.429810,1904.969971 
	C891.062012,1894.578857 872.223389,1883.201416 852.596313,1870.917236 
	C852.033325,1686.573486 852.036072,1503.551270 852.038818,1320.529175 
	C872.965027,1317.045166 893.886658,1313.532837 914.820312,1310.094116 
	C921.244141,1309.038818 927.701172,1308.185425 934.258972,1307.222534 
	C938.140747,1323.107666 941.752930,1337.889282 945.743042,1353.332520 
z"/>
<path fill="#047DF8" opacity="1.000000" stroke="none" 
	d="
M851.233276,1320.488892 
	C852.036072,1503.551270 852.033325,1686.573486 852.043640,1870.484497 
	C824.099976,1855.326172 797.974731,1836.581055 773.350769,1815.902344 
	C755.101685,1800.577026 737.992004,1783.894775 720.116394,1766.348389 
	C719.238708,1758.621582 718.083496,1752.363892 718.078979,1746.105469 
	C717.981934,1611.492798 718.013672,1476.880249 718.020447,1342.267578 
	C745.803101,1337.601562 773.577942,1332.888550 801.371338,1328.287354 
	C817.708252,1325.582764 834.074646,1323.055664 851.233276,1320.488892 
z"/>
<path fill="#10E3EE" opacity="1.000000" stroke="none" 
	d="
M1723.137939,1824.970825 
	C1721.668579,1819.758667 1720.111694,1814.234009 1720.105957,1808.707764 
	C1719.970093,1675.395996 1719.999146,1542.083984 1720.000732,1408.772095 
	C1720.001099,1383.776123 1720.011230,1358.780151 1720.027344,1332.840210 
	C1727.500122,1333.016602 1734.962036,1334.142212 1742.425537,1335.255859 
	C1748.235718,1336.122925 1754.044922,1336.998047 1759.860107,1337.830078 
	C1773.246948,1339.745605 1786.651489,1341.541504 1800.021851,1343.564697 
	C1814.062500,1345.689331 1828.071655,1348.022583 1842.049561,1351.208252 
	C1837.009033,1356.510864 1838.020630,1362.420410 1838.019287,1368.003418 
	C1837.993164,1474.635010 1837.999634,1581.266479 1838.002197,1687.898071 
	C1838.002319,1690.230347 1838.051270,1692.562622 1838.051270,1694.894897 
	C1838.051392,1699.292114 1840.291748,1701.670410 1844.593994,1702.213623 
	C1838.503418,1710.044189 1832.663452,1718.085938 1826.276489,1725.666748 
	C1805.120239,1750.776978 1782.599976,1774.579468 1757.575195,1795.917236 
	C1746.321289,1805.513184 1735.041138,1815.078369 1723.137939,1824.970825 
z"/>
<path fill="#026DFA" opacity="1.000000" stroke="none" 
	d="
M717.189453,1342.192383 
	C718.013672,1476.880249 717.981934,1611.492798 718.078979,1746.105469 
	C718.083496,1752.363892 719.238708,1758.621582 719.782715,1765.792480 
	C717.493958,1764.745728 715.280518,1762.785889 712.497925,1760.573975 
	C696.549316,1742.435913 680.723206,1724.911255 665.899536,1706.576172 
	C645.806702,1681.723999 628.005798,1655.220703 612.596558,1626.156982 
	C612.652466,1618.052368 612.048401,1611.193848 612.042358,1604.334717 
	C611.970215,1522.824707 611.987244,1441.314819 611.980835,1359.804688 
	C615.628845,1358.916016 619.276855,1358.027222 623.494019,1356.730225 
	C644.368774,1353.287598 664.681213,1350.296875 684.977539,1347.200684 
	C695.452637,1345.602783 705.899109,1343.817627 717.189453,1342.192383 
z"/>
<path fill="#11E9ED" opacity="1.000000" stroke="none" 
	d="
M1845.145752,1701.864502 
	C1840.291748,1701.670410 1838.051392,1699.292114 1838.051270,1694.894897 
	C1838.051270,1692.562622 1838.002319,1690.230347 1838.002197,1687.898071 
	C1837.999634,1581.266479 1837.993164,1474.635010 1838.019287,1368.003418 
	C1838.020630,1362.420410 1837.009033,1356.510864 1842.747559,1351.674072 
	C1864.804077,1354.702515 1886.098389,1358.328491 1907.437134,1361.672119 
	C1921.401611,1363.860474 1935.455811,1365.475098 1949.421875,1367.654541 
	C1960.430786,1369.372314 1971.366333,1371.560059 1983.053345,1373.807861 
	C1982.522339,1383.885986 1981.829224,1393.804199 1979.934448,1403.487549 
	C1964.844482,1480.604858 1938.128906,1553.443237 1898.031128,1622.067627 
	C1896.442749,1622.808472 1896.281250,1623.291626 1896.598389,1623.934937 
	C1893.955322,1628.857178 1891.312134,1633.779297 1888.510620,1639.389160 
	C1887.536865,1640.584351 1886.423218,1640.898193 1885.949951,1641.627686 
	C1876.254517,1656.567383 1866.730957,1671.619629 1856.941772,1686.497192 
	C1853.510620,1691.711914 1849.463501,1696.521118 1845.145752,1701.864502 
z"/>
<path fill="#160F4D" opacity="1.000000" stroke="none" 
	d="
M1948.588135,1125.966309 
	C1950.091553,1125.275024 1952.314087,1124.597290 1955.261963,1124.109375 
	C1953.760620,1124.859497 1951.533936,1125.419678 1948.588135,1125.966309 
z"/>
<path fill="#160F4D" opacity="1.000000" stroke="none" 
	d="
M1972.640381,1121.977295 
	C1974.127686,1121.310059 1976.334717,1120.650879 1979.272705,1120.102783 
	C1977.789062,1120.804321 1975.574707,1121.394897 1972.640381,1121.977295 
z"/>
<path fill="#160F4D" opacity="1.000000" stroke="none" 
	d="
M1960.617065,1123.973877 
	C1962.115845,1123.291748 1964.330322,1122.619629 1967.265381,1122.131470 
	C1965.768188,1122.871582 1963.550537,1123.427856 1960.617065,1123.973877 
z"/>
<path fill="#150F51" opacity="1.000000" stroke="none" 
	d="
M664.529175,1142.783936 
	C665.837036,1142.489746 667.650330,1142.603516 669.795166,1143.332397 
	C668.429382,1143.695557 666.731934,1143.443726 664.529175,1142.783936 
z"/>
<path fill="#150F51" opacity="1.000000" stroke="none" 
	d="
M652.500427,1140.672363 
	C653.814148,1140.406250 655.616333,1140.575806 657.758789,1141.351318 
	C656.395630,1141.674194 654.692261,1141.391113 652.500427,1140.672363 
z"/>
<path fill="#416177" opacity="1.000000" stroke="none" 
	d="
M1279.448853,523.201965 
	C1262.651855,523.806030 1245.163208,523.946167 1226.734863,523.894592 
	C1226.999268,523.228027 1228.204834,522.336731 1229.407227,522.341125 
	C1245.857544,522.401123 1262.307251,522.584839 1279.448853,523.201965 
z"/>
<path fill="#6596A4" opacity="1.000000" stroke="none" 
	d="
M1219.231445,523.781677 
	C1210.640137,524.740356 1201.118896,525.503784 1190.661865,526.059570 
	C1199.251099,525.096741 1208.776367,524.341614 1219.231445,523.781677 
z"/>
<path fill="#90C7CE" opacity="1.000000" stroke="none" 
	d="
M1306.270264,525.693115 
	C1297.980103,525.371155 1289.689819,525.049194 1280.676025,524.359985 
	C1287.944824,524.060242 1295.937500,524.127869 1304.970947,524.595825 
	C1306.011719,524.996155 1306.270264,525.693115 1306.270264,525.693115 
z"/>
<path fill="#6696A5" opacity="1.000000" stroke="none" 
	d="
M1337.598633,527.363403 
	C1332.671875,527.356934 1327.025146,526.947266 1320.612061,526.258667 
	C1325.523438,526.306641 1331.200928,526.633423 1337.598633,527.363403 
z"/>
<path fill="#496E82" opacity="1.000000" stroke="none" 
	d="
M1307.118164,525.748596 
	C1306.270264,525.693115 1306.011719,524.996155 1305.880981,524.648071 
	C1309.453857,524.507324 1313.157471,524.714661 1317.530029,525.342163 
	C1314.788086,525.776306 1311.377075,525.790222 1307.118164,525.748596 
z"/>
<path fill="#0B077B" opacity="1.000000" stroke="none" 
	d="
M1896.870483,1623.770630 
	C1896.281250,1623.291626 1896.442749,1622.808472 1897.504395,1622.551514 
	C1897.745239,1623.011108 1897.484253,1623.340698 1896.870483,1623.770630 
z"/>
<path fill="#0161FA" opacity="1.000000" stroke="none" 
	d="
M611.104736,1359.729492 
	C611.987244,1441.314819 611.970215,1522.824707 612.042358,1604.334717 
	C612.048401,1611.193848 612.652466,1618.052368 612.455933,1625.470947 
	C603.253174,1609.990479 594.506653,1593.985474 585.929199,1577.890503 
	C582.960327,1572.319824 580.411133,1566.525513 577.251099,1560.331055 
	C568.630981,1539.152466 559.680786,1518.736084 552.393616,1497.742432 
	C539.478394,1460.535156 531.656372,1421.986206 524.522278,1383.319702 
	C523.991882,1380.444824 524.085510,1377.455078 523.807251,1373.296021 
	C552.846191,1368.586792 581.405884,1363.359375 611.104736,1359.729492 
z"/>
<path fill="#BB82A0" opacity="1.000000" stroke="none" 
	d="
M1277.528809,919.464661 
	C1262.723145,919.968628 1247.157959,920.100891 1230.646606,920.022339 
	C1245.342896,916.477844 1261.052124,917.532532 1277.528809,919.464661 
z"/>
</svg>